# xmcd
#
# Track frame offsets:
#	150
#	19608
#	39706
#	57538
#	76345
#	93889
#	112989
#	132444
#	150702
#	170412
#	187951
#	207305
#	229463
#	248353
#	264421
#
# Disc length: 3737 seconds
#
# Revision: 0
# Processed by: cddbd v1.5.2PL0 Copyright (c) Steve Scherf et al.
# Submitted via: EasyCDDAExtractor 15.3.0.1
#
DISCID=c00e970f
DTITLE=Various Artist - Disco Polo New Hits 7
DYEAR=2009
DGENRE=disco polo
TTITLE0=Lider Dance - Ja Chce Miec Meza
TTITLE1=West - Ciebie Jedna Tylko Mam
TTITLE2=Drossel - Hej Hello Zrobimy Dzis Show
TTITLE3=Wabank - Czuje Smak Twoich Ust
TTITLE4=Velu And Gipsy Girl - Dwie Obraczki
TTITLE5=Solaris - I Juz Zawsze Tak Bedzie
TTITLE6=Holiday - Niezajoma Dziewczyna
TTITLE7=Lider Dance - Odnalazlem Cie
TTITLE8=Drossel - Studniowka
TTITLE9=Redstar - Zostanmy Tu Do Jutra
TTITLE10=Spike - Zabierz Mnie
TTITLE11=Julio - Fantazja
TTITLE12=Lider Dance - Kochaj Mnie Bez Konca
TTITLE13=Effect - Adam I Ewa
TTITLE14=Trax - Kraina Snow
EXTD=
EXTT0=
EXTT1=
EXTT2=
EXTT3=
EXTT4=
EXTT5=
EXTT6=
EXTT7=
EXTT8=
EXTT9=
EXTT10=
EXTT11=
EXTT12=
EXTT13=
EXTT14=
PLAYORDER=
